<?xml version="1.0" encoding="utf-8"?>
<!-- Generator: Adobe Illustrator 23.0.3, SVG Export Plug-In . SVG Version: 6.00 Build 0)  -->
<svg version="1.1" id="Capa_1" xmlns="http://www.w3.org/2000/svg" xmlns:xlink="http://www.w3.org/1999/xlink" x="0px" y="0px"
	 viewBox="0 0 1200 1200" enable-background="new 0 0 1200 1200" xml:space="preserve">
<path d="M423.863,638.231c-2.015-9.826-8.168-18.735-16.644-24.099c5.763,3.647,12.305,5.094,17.856,9.598
	c5.428,4.405,10.033,9.83,13.529,15.881c3.624,6.271,16.068,32.514,2.932,33.356c-7.198,0.461-12.965-6.361-14.897-13.309
	C424.707,652.709,425.312,645.296,423.863,638.231z M768.481,285.323c7.198,0.46,12.965-6.361,14.897-13.309
	c1.932-6.948,1.328-14.362,2.777-21.426c2.015-9.826,8.167-18.735,16.643-24.099c-5.763,3.647-12.305,5.093-17.856,9.598
	c-5.428,4.405-10.032,9.83-13.529,15.881C767.79,258.238,755.346,284.482,768.481,285.323z M667.292,472.347
	c0.511,4.285,2.898,20.46,12.262,16.087c9.324-4.354,8.259-18.978,7.484-23.873c-1.315-8.298-5.503-15.466-9.656-22.539
	c-2.572-4.38-5.186-8.809-9.378-12.149c-4.192-3.34-10.201-5.528-17.365-4.816c9.819,3.113,14.209,11.409,15.526,20.167
	C667.48,453.981,666.238,463.503,667.292,472.347z M806.19,944.362c-16.098,7.357-28.195,22.888-31.387,40.297
	c-2.032,11.078-0.67,22.701-3.857,33.503c-3.23,10.947-11.305,20.298-21.549,25.3v7.287h-4.986l-16.779,96.588
	c-0.617,3.55-5.713,3.55-6.33,0l-16.78-96.588h-4.986V813.362c-15.709-37.885-36.249-75.704-37.02-115.596
	c2.87,13.681,12.886,25.653,25.845,30.893c-11.135-65.711-22.247-133.328-8.287-198.497c-1.14,45.191,5.524,90.553,19.462,133.553
	V189.831c0-1.721,2.668-3.401,3-5.024c0.283-1.382,0.65-2.68,1.086-3.904h-2.498c-2.153,0-4.121-0.976-5.431-2.557
	c-1.309,1.582-3.277,2.557-5.43,2.557h-3.906c-2.154,0-4.122-0.975-5.431-2.557c-1.309,1.582-3.277,2.557-5.43,2.557h-3.907
	c-2.154,0-4.121-0.976-5.431-2.557c-1.309,1.582-3.277,2.557-5.431,2.557h-3.906c-2.153,0-4.121-0.976-5.431-2.557
	c-1.309,1.582-3.277,2.557-5.431,2.557h-3.906c-3.903,0-7.078-3.175-7.078-7.078v-3.117h-12.743
	c4.632,2.884,7.739,7.587,9.072,14.099c0.332,1.623,3,3.303,3,5.024v101.973c10.632-21.034,18.047-43.694,21.743-66.972
	c9.304,30.162,3.969,64.482-14.054,90.395c7.256-8.06,14.513-16.121,21.77-24.181c-4.664,26.303-14.786,51.606-29.459,73.929
	v685.775h-4.986l-16.779,96.588c-0.617,3.55-5.713,3.55-6.33,0l-16.78-96.588h-4.986V918.413
	c-30.486-38.807-46.348-89.177-42.336-138.443c5.69,23.737,4.447,41.303,21.155,52.297c3.147-49.546-5.432-73.649-26.478-118.612
	c17.558,13.823,32.455,34.424,35.699,56.533c19.012-58.503-39.484-123.43-16.806-180.611c-3.243,35.717,9.396,72.173,28.767,103.048
	V515.539l-0.752,18.783c0.235-19.138-12.094-35.761-22.296-51.954c-10.202-16.193-18.903-36.436-11.108-53.916
	c3.222,10.522,11.339,19.433,21.515,23.621c-14.888-42.119-17.305-88.56-6.869-131.997c1.339,21.236,8.146,42.093,19.509,60.077
	V189.831c0-1.721,2.667-3.401,2.999-5.024c1.333-6.512,4.44-11.215,9.072-14.099H583.77v3.117c0,3.903-3.175,7.078-7.078,7.078
	h-3.906c-2.154,0-4.121-0.976-5.431-2.557c-1.309,1.582-3.277,2.557-5.431,2.557h-3.907c-2.153,0-4.121-0.976-5.43-2.557
	c-1.309,1.582-3.277,2.557-5.431,2.557h-3.906c-2.153,0-4.121-0.975-5.431-2.557c-1.309,1.582-3.278,2.557-5.431,2.557h-3.907
	c-2.154,0-4.121-0.975-5.43-2.557c-1.309,1.582-3.277,2.557-5.431,2.557h-2.498c0.437,1.224,0.803,2.521,1.086,3.904
	c0.332,1.623,2.999,3.303,2.999,5.024v104.196c14.471-19.373,21.914-43.988,20.186-68.134c6.888,31.479,4.218,64.984-7.57,94.974
	c-5.526,14.059-12.93,30.309-5.195,43.284c2.771-9.719,5.541-19.438,8.312-29.157c3.135,24.407-2.678,49.786-15.733,70.614v645.141
	h-4.985l-16.78,96.588c-0.617,3.55-5.713,3.55-6.33,0l-16.779-96.588h-4.986v-47.732c-2.766-5.315-6.586-10.286-10.658-14.581
	c-9.401-9.914-20.704-18.867-25.52-31.652c-3.256-8.645-3.158-18.143-4.845-27.226c-1.687-9.083-5.963-18.646-14.419-22.367
	c16.136,6.856,29.318,20.375,35.768,36.677c5.959-15.283-3.854-31.787-13.23-45.246c-9.377-13.46-19.186-29.968-13.218-45.248
	c4.993,18.604,16.894,35.268,32.87,46.029c-8.774-17.001-17.696-34.472-19.93-53.473c-2.014-17.142,1.553-34.371,3.563-51.513
	c2.009-17.142,2.274-35.359-5.684-50.674c17.498,17.907,19.286,45.396,20.995,70.374c1.308,19.124,4.116,39.925,14.308,55.414
	V584.812c-2.881-7.188-6.992-13.958-12.665-20.141c-19.739-21.515-44.016-38.61-62.872-60.902
	c9.746,10.665,31.92,25.885,51.725,23.761c-17.311-4.929-28.238-22.88-30.839-40.69c-2.601-17.811,1.377-35.828,4.491-53.556
	c3.114-17.728,5.309-36.395-0.634-53.385c14.005,21.451,19.443,48.331,14.88,73.539c22.915-48.203,10.791-104.955-1.758-156.832
	c25.498,30.242,29.167,72.775,30.366,112.314c1.175,38.809-12.282,79.935,7.308,112.995V196.972
	c-3.603-9.193-10.589-17.203-14.147-26.573c-4.874-12.833-2.887-27.54,2.908-39.983c5.796-12.443,15.09-22.921,24.99-32.43
	c-8.643,11.157-10.015,27.388-3.647,39.935l1.202-0.937c0.22-10.788,8.688-20.343,17.299-27.421
	c9.507-7.815,20.486-15.451,24.025-27.238c3.657,11.639-1.103,24.254-7.373,34.72c-0.953,1.59-1.95,3.162-2.959,4.727
	c-0.405,2.374-0.562,4.791-0.392,7.194c0.232,3.27,1.186,6.797,3.864,8.689c2.462,1.739,5.791,1.654,8.711,0.903
	c10.16-2.61,17.658-13.124,16.817-23.581c2.911,8.846,2.781,18.58-0.028,27.449c0.823-0.334,1.704-0.547,2.634-0.547h3.906
	c2.153,0,4.121,0.975,5.431,2.557c1.309-1.582,3.277-2.557,5.43-2.557h3.907c2.154,0,4.121,0.976,5.431,2.557
	c1.158-1.398,2.841-2.28,4.702-2.475c-1.09-5.477-0.406-11.251,2.604-16.01c2.188,11.477,10.77,21.476,21.694,25.551h0.406
	c-6.434-3.195-9.081-11.993-7.584-19.269c1.633-7.937,6.717-14.633,10.858-21.598c4.141-6.965,7.508-15.24,5.255-23.023
	c10.463,6.399,14.79,21.166,9.435,32.199c9.206-0.085,14.767-10.983,14.114-20.166c-0.654-9.183-5.2-17.656-6.677-26.743
	c-1.477-9.087,1.702-20.361,10.551-22.902c-4.024,6.335-2.167,14.878,1.75,21.279c3.918,6.402,9.616,11.528,13.868,17.712
	c10.709,15.575,9.835,37.529-0.324,53.232c1.322,0.405,2.506,1.157,3.381,2.214c1.309-1.582,3.278-2.557,5.431-2.557h3.906
	c2.153,0,4.121,0.975,5.431,2.557c1.309-1.581,3.277-2.557,5.431-2.557h3.907c2.154,0,4.121,0.975,5.43,2.557
	c1.309-1.582,3.277-2.557,5.431-2.557h3.906c2.153,0,4.121,0.976,5.43,2.557c1.309-1.582,3.278-2.557,5.431-2.557h3.906
	c3.903,0,7.078,3.175,7.078,7.077v2.545h3.466c1.968-6.529,7.091-12.841,10.494-19.102c8.763-16.122,5.479-37.888-7.65-50.706
	c13.779,2.216,24.491,13.959,29.488,26.989s5.306,27.316,5.553,41.27c10.211-13.974,13.697-32.645,9.216-49.363
	c7.195,11.384,14.611,23.434,15.308,36.884c1.276,24.621-19.784,44.511-28.585,67.367v190.744c0.831-1.18,1.691-2.332,2.58-3.439
	c7.942-9.884,17.952-18.204,24.262-29.202c6.309-10.998,7.876-26.293-0.924-35.421c13.091,7.132,14.77,25.938,9.262,39.791
	c-5.508,13.853-16.09,25.084-22.746,38.423c-6.656,13.339-8.352,31.412,2.535,41.595c-0.773-18.221,10.809-36.332,27.672-43.276
	c-11.625,8.473-15.638,23.928-16.87,38.261c-1.232,14.333-0.581,29.223-6.086,42.514c-3.62,8.74-11.085,16.546-19.685,19.714v15.36
	c3.302-1.752,6.385-4.001,9.084-6.523c7.548-7.055,12.944-16.054,19.437-24.089c6.493-8.035,14.727-15.458,24.881-17.361
	c-20.229,20.648-17.593,54.28-30.162,80.31c-5.271,10.917-13.408,20.368-23.24,27.451l0.241,349.835
	c16.233-19.738,24.5-45.845,22.588-71.329c12.604,36.362,9.736,77.81-7.757,112.089C775.383,957.152,789.185,942.742,806.19,944.362
	z M492.506,220.361c-0.038-3.835-3.141-6.957-6.993-6.992c-3.897-0.036-7.085,3.095-7.121,6.992
	c-0.621,68.241-0.356,136.481,0.187,204.722l1.411,204.722l1.411,204.722l0.682,102.361l0.575,51.18l0.427,25.59l0.213,12.795
	l0.107,6.398c-0.028,2.133,0.132,4.265,2.044,6.397c1.911-2.132,2.071-4.265,2.043-6.397l0.107-6.398l0.214-12.795l0.427-25.59
	l0.575-51.18l0.682-102.361l1.411-204.722l1.411-204.722C492.862,356.842,493.127,288.602,492.506,220.361z M603.582,161.391
	c1.46,0,2.643-1.184,2.643-2.643s-1.183-2.643-2.643-2.643h-21.269c-2.605,0-3.146-2.73-3.146-3.146v-2.296
	c0-2.309-1.872-4.181-4.181-4.181h-1.007c-1.623,0-3.09,0.946-3.77,2.419c-0.507,1.096-1.613,1.824-2.855,1.824
	c-1.242,0-2.348-0.728-2.855-1.824c-0.68-1.473-2.147-2.419-3.77-2.419h-1.517c-1.623,0-3.09,0.946-3.77,2.419
	c-0.507,1.096-1.613,1.824-2.855,1.824s-2.348-0.728-2.855-1.824c-0.68-1.473-2.147-2.419-3.77-2.419h-1.517
	c-1.623,0-3.09,0.946-3.77,2.419c-0.507,1.096-1.613,1.824-2.855,1.824c-1.241,0-2.347-0.727-2.854-1.821
	c-0.683-1.474-2.15-2.421-3.774-2.421h-1.515c-1.623,0-3.09,0.946-3.77,2.419c-0.507,1.096-1.613,1.824-2.855,1.824
	c-1.241,0-2.347-0.727-2.854-1.821c-0.683-1.474-2.15-2.421-3.774-2.421h-1.004c-2.309,0-4.181,1.872-4.181,4.181v0.591
	c0,2.679-2.172,4.851-4.851,4.851h-35.478c-1.46,0-2.643,1.183-2.643,2.643s1.183,2.643,2.643,2.643h46.41
	c1.976,0,3.794-1.112,4.692-2.871c0.18-0.352,0.314-0.638,0.354-0.781c0.17-0.594,0.741-1.179,1.33-0.992
	c0.651,0.206,1.677,3.176,1.677,3.176c0.554,0.912,1.544,1.469,2.611,1.469h4.016c1.914,0,3.669-1.081,4.546-2.782
	c0.203-0.392,0.356-0.715,0.4-0.87c0.17-0.594,0.741-1.179,1.33-0.992c0.272,0.086,0.766,0.912,1.248,1.843
	c0.885,1.71,2.63,2.802,4.555,2.802h2.519c1.94,0,3.726-1.103,4.578-2.845c0.176-0.361,0.308-0.656,0.351-0.807
	c0.17-0.594,0.741-1.179,1.33-0.992c0.263,0.083,0.581,0.742,0.928,1.544c0.811,1.877,2.65,3.101,4.694,3.101h2.7
	c1.94,0,3.725-1.103,4.578-2.845c0.176-0.361,0.309-0.656,0.352-0.807c0.17-0.594,0.741-1.179,1.33-0.992
	c0.263,0.083,0.581,0.742,0.928,1.544c0.811,1.877,2.65,3.101,4.694,3.101H603.582z M608.266,220.361
	c-0.037-3.835-3.14-6.957-6.992-6.992c-3.897-0.036-7.086,3.095-7.121,6.992c-0.621,68.241-0.356,136.481,0.187,204.722
	l1.411,204.722l1.411,204.722l0.682,102.361l0.575,51.18l0.427,25.59l0.214,12.795l0.107,6.398
	c-0.028,2.133,0.132,4.265,2.043,6.397c1.912-2.132,2.072-4.265,2.044-6.397l0.107-6.398l0.213-12.795l0.427-25.59l0.575-51.18
	l0.682-102.361l1.411-204.722l1.411-204.722C608.621,356.842,608.887,288.602,608.266,220.361z M606.255,171.274
	c-11.688,0-14.359,12.021-14.359,12.021S617.943,171.274,606.255,171.274z M724.025,220.361c-0.037-3.835-3.14-6.957-6.992-6.992
	c-3.897-0.036-7.085,3.095-7.121,6.992c-0.621,68.241-0.356,136.481,0.188,204.722l1.411,204.722l1.411,204.722l0.682,102.361
	l0.575,51.18l0.427,25.59l0.214,12.795l0.107,6.398c-0.028,2.133,0.132,4.265,2.043,6.397c1.912-2.132,2.072-4.265,2.044-6.397
	l0.107-6.398l0.213-12.795l0.427-25.59l0.575-51.18l0.682-102.361l1.411-204.722l1.411-204.722
	C724.381,356.842,724.646,288.602,724.025,220.361z M722.354,174.761l-1.733-3.439c-11.051,0.502-13.631,11.974-13.631,11.974
	S717.786,178.31,722.354,174.761z M750.474,158.747c0-1.46-1.183-2.643-2.643-2.643h-35.477c-2.679,0-4.851-2.172-4.851-4.851
	v-0.591c0-2.309-1.872-4.181-4.18-4.181h-1.004c-1.624,0-3.091,0.947-3.774,2.421c-0.507,1.095-1.612,1.821-2.854,1.821
	c-1.242,0-2.348-0.728-2.854-1.824c-0.68-1.473-2.148-2.419-3.77-2.419h-1.515c-1.624,0-3.091,0.947-3.774,2.421
	c-0.507,1.095-1.612,1.821-2.854,1.821c-1.242,0-2.348-0.728-2.854-1.824c-0.68-1.473-2.148-2.419-3.77-2.419h-1.518
	c-1.622,0-3.09,0.946-3.77,2.419c-0.506,1.096-1.613,1.824-2.855,1.824c-1.242,0-2.348-0.728-2.854-1.824
	c-0.681-1.473-2.148-2.419-3.771-2.419h-1.518c-1.622,0-3.09,0.946-3.77,2.419c-0.506,1.096-1.613,1.824-2.855,1.824
	c-1.242,0-2.348-0.728-2.854-1.824c-0.68-1.473-2.148-2.419-3.77-2.419h-1.007c-2.309,0-4.181,1.872-4.181,4.181v2.296
	c0,0.416-0.012,3.146-3.146,3.146h-21.269c-1.46,0-2.643,1.183-2.643,2.643s1.183,2.643,2.643,2.643h30.518
	c2.045,0,3.883-1.224,4.694-3.101c0.347-0.802,0.665-1.461,0.927-1.544c0.589-0.186,1.16,0.398,1.33,0.992
	c0.043,0.151,0.175,0.447,0.352,0.807c0.853,1.742,2.638,2.845,4.578,2.845h2.7c2.045,0,3.883-1.224,4.694-3.101
	c0.347-0.802,0.665-1.461,0.927-1.544c0.589-0.186,1.16,0.398,1.33,0.992c0.043,0.151,0.175,0.447,0.352,0.807
	c0.852,1.743,2.638,2.845,4.578,2.845h2.519c1.925,0,3.669-1.092,4.554-2.802c0.482-0.932,0.976-1.757,1.248-1.843
	c0.589-0.186,1.16,0.398,1.33,0.992c0.045,0.155,0.198,0.478,0.4,0.87c0.878,1.701,2.632,2.782,4.547,2.782h4.016
	c1.067,0,2.057-0.557,2.611-1.469c0,0,1.025-2.97,1.677-3.176c0.589-0.186,1.16,0.398,1.33,0.992
	c0.041,0.143,0.175,0.429,0.355,0.781c0.898,1.759,2.716,2.871,4.692,2.871h46.41C749.291,161.391,750.474,160.207,750.474,158.747z
	"/>
</svg>
