<?xml version="1.0" encoding="utf-8"?>
<!-- Generator: Adobe Illustrator 23.0.3, SVG Export Plug-In . SVG Version: 6.00 Build 0)  -->
<svg version="1.1" id="Capa_1" xmlns="http://www.w3.org/2000/svg" xmlns:xlink="http://www.w3.org/1999/xlink" x="0px" y="0px"
	 viewBox="0 0 1200 1200" enable-background="new 0 0 1200 1200" xml:space="preserve">
<path d="M752.368,60.5h-40.27v-2.777c0-4.258-3.464-7.722-7.723-7.722h-4.262c-2.349,0-4.497,1.065-5.926,2.79
	c-1.428-1.726-3.576-2.79-5.925-2.79H684c-2.35,0-4.497,1.064-5.926,2.79c-1.428-1.726-3.576-2.79-5.925-2.79h-4.263
	c-2.35,0-4.497,1.065-5.926,2.79c-1.429-1.726-3.576-2.79-5.926-2.79h-4.262c-2.349,0-4.497,1.065-5.926,2.79
	c-1.429-1.726-3.576-2.79-5.926-2.79h-4.263c-4.258,0-7.722,3.464-7.722,7.722V60.5H600h-6.356h-21.579v-2.777
	c0-4.258-3.464-7.722-7.723-7.722h-4.262c-2.35,0-4.497,1.065-5.926,2.79c-1.429-1.726-3.576-2.79-5.926-2.79h-4.263
	c-2.349,0-4.497,1.065-5.925,2.79c-1.429-1.726-3.576-2.79-5.926-2.79h-4.262c-2.35,0-4.497,1.065-5.926,2.79
	C520.497,51.065,518.35,50,516,50h-4.263c-2.35,0-4.497,1.064-5.925,2.79c-1.429-1.726-3.576-2.79-5.926-2.79h-4.262
	c-4.258,0-7.722,3.464-7.722,7.722V60.5h-42.761c-2.275,0-4.125,1.851-4.125,4.125v12.704c0,2.275,1.85,4.126,4.125,4.126h15.244
	c-5.054,3.146-8.445,8.278-9.899,15.384c-0.362,1.771-3.273,3.604-3.273,5.482v939.383h5.441l18.309,105.391
	c0.673,3.874,6.234,3.874,6.907,0l18.309-105.391h5.44V102.321c0-1.878-2.91-3.712-3.273-5.482c-0.309-1.508-0.709-2.924-1.186-4.26
	h2.726c2.35,0,4.497-1.064,5.926-2.79c1.428,1.726,3.576,2.79,5.925,2.79H516c2.349,0,4.497-1.065,5.926-2.79
	c1.429,1.726,3.576,2.79,5.926,2.79h4.262c2.35,0,4.497-1.064,5.926-2.79c1.428,1.726,3.576,2.79,5.925,2.79h4.263
	c2.35,0,4.497-1.065,5.926-2.79c1.429,1.726,3.576,2.79,5.926,2.79h4.262c4.258,0,7.723-3.464,7.723-7.723v-3.401h13.904
	c-5.054,3.146-8.444,8.278-9.899,15.384c-0.362,1.771-3.273,3.604-3.273,5.482v939.383h5.44l18.309,105.391
	c0.673,3.874,6.234,3.874,6.907,0l18.309-105.391h5.44V102.321c0-1.878-2.911-3.712-3.273-5.482
	c-1.454-7.105-4.845-12.237-9.899-15.384h13.904v3.401c0,4.258,3.464,7.723,7.723,7.723h4.262c2.35,0,4.497-1.065,5.926-2.79
	c1.429,1.726,3.576,2.79,5.926,2.79h4.262c2.35,0,4.497-1.064,5.926-2.79c1.429,1.726,3.576,2.79,5.926,2.79h4.263
	c2.35,0,4.497-1.064,5.925-2.79c1.429,1.726,3.576,2.79,5.926,2.79h4.262c2.35,0,4.497-1.065,5.925-2.79
	c1.429,1.726,3.576,2.79,5.926,2.79h2.726c-0.476,1.335-0.876,2.751-1.185,4.26c-0.362,1.771-3.273,3.604-3.273,5.482v939.383h5.44
	l18.309,105.391c0.673,3.874,6.234,3.874,6.907,0l18.309-105.391h5.441V102.321c0-1.878-2.911-3.712-3.273-5.482
	c-1.454-7.105-4.845-12.237-9.898-15.384h12.753c3.648,0,6.616-2.968,6.616-6.616v-7.724C758.984,63.468,756.016,60.5,752.368,60.5z
	 M472.278,359.014l-1.54,223.38l-1.54,223.38l-0.744,111.69l-0.627,55.845l-0.466,27.923l-0.233,13.961l-0.116,6.981
	c0.031,2.327-0.144,4.654-2.229,6.981c-2.086-2.327-2.261-4.654-2.23-6.981l-0.116-6.981l-0.233-13.961l-0.466-27.923l-0.627-55.845
	l-0.744-111.69l-1.54-223.38l-1.54-223.38c-0.592-74.46-0.882-148.92-0.204-223.381c0.038-4.252,3.517-7.668,7.77-7.63
	c4.203,0.038,7.589,3.445,7.63,7.63C473.16,210.094,472.871,284.554,472.278,359.014z M455.348,95.19
	c0,0,2.915-13.117,15.667-13.117C483.768,82.073,455.348,95.19,455.348,95.19z M560.383,71.289c-2.231,0-4.237-1.336-5.122-3.384
	c-0.378-0.875-0.725-1.594-1.012-1.685c-0.643-0.203-1.266,0.435-1.451,1.083c-0.047,0.165-0.191,0.487-0.384,0.881
	c-0.93,1.901-2.879,3.104-4.995,3.104h-2.946c-2.231,0-4.237-1.336-5.122-3.384c-0.378-0.875-0.725-1.594-1.012-1.685
	c-0.643-0.203-1.266,0.435-1.452,1.083c-0.047,0.165-0.191,0.487-0.383,0.881c-0.93,1.901-2.878,3.105-4.995,3.105h-2.748
	c-2.101,0-4.004-1.192-4.97-3.057c-0.526-1.017-1.065-1.917-1.362-2.011c-0.643-0.203-1.266,0.435-1.452,1.083
	c-0.048,0.169-0.216,0.521-0.437,0.949c-0.957,1.856-2.872,3.036-4.961,3.036h-4.382c-1.165,0-2.245-0.607-2.849-1.602
	c0,0-1.119-3.241-1.83-3.466c-0.643-0.203-1.266,0.435-1.452,1.083c-0.045,0.156-0.191,0.468-0.387,0.852
	c-0.98,1.92-2.964,3.133-5.12,3.133h-50.64c-1.593,0-2.884-1.291-2.884-2.884c0-1.593,1.291-2.884,2.884-2.884h38.711
	c2.923,0,5.293-2.37,5.293-5.293v-0.645c0-2.519,2.042-4.562,4.562-4.562h1.096c1.772,0,3.373,1.033,4.118,2.641
	c0.553,1.195,1.759,1.987,3.114,1.987c1.355,0,2.562-0.794,3.115-1.99c0.742-1.607,2.343-2.639,4.114-2.639h1.653
	c1.772,0,3.373,1.033,4.118,2.641c0.553,1.195,1.759,1.987,3.114,1.987c1.355,0,2.562-0.794,3.115-1.99
	c0.742-1.607,2.343-2.639,4.114-2.639h1.656c1.771,0,3.372,1.032,4.114,2.639c0.553,1.196,1.76,1.99,3.115,1.99
	s2.562-0.794,3.115-1.99c0.742-1.607,2.343-2.639,4.114-2.639h1.656c1.771,0,3.372,1.032,4.114,2.639
	c0.553,1.196,1.76,1.99,3.115,1.99s2.562-0.794,3.115-1.99c0.742-1.607,2.343-2.639,4.114-2.639h1.098
	c2.519,0,4.562,2.042,4.562,4.562v2.505c0,0.454,0.59,3.432,3.432,3.432h23.207c1.593,0,2.884,1.291,2.884,2.884
	c0,1.593-1.291,2.884-2.884,2.884H560.383z M598.588,359.014l-1.54,223.38l-1.54,223.38l-0.744,111.69l-0.627,55.845l-0.466,27.923
	l-0.233,13.961l-0.116,6.981c0.031,2.327-0.144,4.654-2.23,6.981c-2.086-2.327-2.26-4.654-2.229-6.981l-0.116-6.981l-0.233-13.961
	l-0.466-27.923l-0.627-55.845l-0.744-111.69l-1.54-223.38l-1.54-223.38c-0.593-74.46-0.882-148.92-0.204-223.381
	c0.038-4.252,3.517-7.668,7.77-7.63c4.203,0.038,7.589,3.445,7.63,7.63C599.47,210.094,599.181,284.554,598.588,359.014z
	 M580.932,95.19c0,0,2.915-13.117,15.667-13.117C609.352,82.073,580.932,95.19,580.932,95.19z M724.898,359.014l-1.54,223.38
	l-1.54,223.38l-0.744,111.69l-0.627,55.845l-0.466,27.923l-0.233,13.961l-0.116,6.981c0.031,2.327-0.144,4.654-2.23,6.981
	c-2.086-2.327-2.26-4.654-2.229-6.981l-0.116-6.981l-0.233-13.961l-0.466-27.923l-0.627-55.845l-0.744-111.69l-1.54-223.38
	l-1.54-223.38c-0.593-74.46-0.882-148.92-0.205-223.381c0.039-4.252,3.517-7.668,7.77-7.63c4.203,0.038,7.589,3.445,7.63,7.63
	C725.781,210.094,725.491,284.554,724.898,359.014z M706.516,95.19c0,0,2.915-13.117,15.667-13.117S706.516,95.19,706.516,95.19z
	 M751.078,71.289h-50.64c-2.155,0-4.139-1.213-5.119-3.133c-0.196-0.384-0.342-0.696-0.387-0.852
	c-0.185-0.648-0.808-1.286-1.452-1.083c-0.711,0.225-1.83,3.466-1.83,3.466c-0.605,0.995-1.685,1.602-2.849,1.602h-4.382
	c-2.089,0-4.003-1.18-4.961-3.036c-0.221-0.428-0.388-0.78-0.437-0.949c-0.185-0.648-0.808-1.286-1.452-1.083
	c-0.297,0.094-0.835,0.995-1.362,2.011c-0.966,1.865-2.869,3.057-4.969,3.057h-2.748c-2.117,0-4.066-1.203-4.995-3.105
	c-0.192-0.393-0.336-0.716-0.384-0.881c-0.185-0.648-0.808-1.286-1.452-1.083c-0.286,0.091-0.633,0.81-1.012,1.685
	c-0.885,2.048-2.891,3.384-5.122,3.384h-2.946c-2.117,0-4.065-1.203-4.995-3.104c-0.193-0.394-0.336-0.716-0.384-0.881
	c-0.185-0.648-0.808-1.286-1.452-1.083c-0.286,0.091-0.633,0.81-1.012,1.685c-0.885,2.048-2.891,3.384-5.122,3.384h-33.299
	c-1.593,0-2.884-1.291-2.884-2.884c0-1.593,1.291-2.884,2.884-2.884h23.207c3.42,0,3.432-2.978,3.432-3.432v-2.505
	c0-2.519,2.043-4.562,4.562-4.562h1.098c1.77,0,3.372,1.032,4.114,2.639c0.552,1.196,1.759,1.99,3.114,1.99
	c1.355,0,2.563-0.794,3.115-1.99c0.743-1.607,2.344-2.639,4.114-2.639h1.656c1.77,0,3.372,1.032,4.114,2.639
	c0.552,1.196,1.759,1.99,3.114,1.99c1.355,0,2.563-0.794,3.115-1.99c0.743-1.607,2.344-2.639,4.114-2.639h1.656
	c1.77,0,3.372,1.032,4.114,2.639c0.552,1.196,1.759,1.99,3.114,1.99c1.355,0,2.561-0.793,3.114-1.987
	c0.744-1.608,2.346-2.641,4.118-2.641h1.653c1.77,0,3.372,1.032,4.114,2.639c0.552,1.196,1.759,1.99,3.114,1.99
	c1.355,0,2.561-0.793,3.114-1.987c0.745-1.608,2.346-2.641,4.118-2.641h1.096c2.519,0,4.561,2.042,4.561,4.562v0.645
	c0,2.923,2.37,5.293,5.293,5.293h38.711c1.593,0,2.884,1.291,2.884,2.884C753.962,69.998,752.671,71.289,751.078,71.289z"/>
</svg>
